<?xml version="1.0" encoding="UTF-8"?>
<svg width="1160px" height="580px" viewBox="0 0 1160 580" version="1.1" xmlns="http://www.w3.org/2000/svg" xmlns:xlink="http://www.w3.org/1999/xlink">
    <!-- Generator: Sketch 64 (93537) - https://sketch.com -->
    <title>TE_Logo_Black</title>
    <desc>Created with Sketch.</desc>
    <defs>
        <polygon id="path-1" points="0 3.64183281 475 3.64183281 475 402.641833 0 402.641833"></polygon>
        <polygon id="path-3" points="0 0.358167194 528 0.358167194 528 580.358167 0 580.358167"></polygon>
    </defs>
    <g id="TE_Logo_Black" stroke="none" stroke-width="1" fill="none" fill-rule="evenodd">
        <g id="Group-4" transform="translate(0.000000, 47.358167)">
            <mask id="mask-2" fill="white">
                <use xlink:href="#path-1"></use>
            </mask>
            <g id="Clip-2"></g>
            <path d="M323.639862,152.675113 L323.639862,103.068515 L374.554081,103.068515 C371.565659,132.680054 353.140426,150.248431 323.639862,152.675113 Z M392,99.9699828 C392,57.8239284 366.507554,31.6418328 325.477337,31.6418328 L249,31.6418328 L249,169.641833 L325.023016,169.641833 C365.709969,169.641833 392,142.296534 392,99.9699828 L392,99.9699828 Z" id="Fill-1" fill="#FFF200" mask="url(#mask-2)"></path>
            <path d="M472.527741,144.919369 C468.101346,137.633395 455.24468,135.623471 445.124332,135.211437 L429.601769,134.578311 L429.601769,61.4170891 L401.624939,33.3887033 C384.633618,14.5557184 359.252266,3.64183281 328.47876,3.64183281 L188.725393,3.64183281 L188.725393,42.4333599 L201.823499,53.9803715 L0,53.9803715 L0,117.413563 L122.681565,117.413563 L122.681565,362.523756 L186.170156,362.523756 L186.170156,117.413563 L218.020081,117.413563 L218.020081,331.058401 L289.486242,402.641833 L332.120476,402.641833 L332.120476,269.363793 L363.346681,269.363793 L377.450786,297.412278 C381.394301,296.990194 385.106437,296.31687 388.647553,295.452603 L345.047561,208.764594 C335.430212,190.062254 327.412401,186.896625 308.197822,186.896625 L249.578266,186.896625 L249.578266,320.184714 L228.904989,320.184714 L228.904989,31.5596728 L199.610301,31.5596728 L199.610301,14.5155199 L328.47876,14.5155199 C379.684103,14.5155199 414.089266,48.5234287 414.089266,99.133307 C414.089266,132.457842 396.454105,169.91277 357.079308,178.475044 L352.783693,179.399609 L352.833993,187.791041 L355.48983,189.37888 C355.53007,189.409029 360.550004,192.464113 364.19172,199.740037 L408.526092,287.433007 C427.358391,276.137236 439.390138,256.510331 450.013486,231.78827 L455.67726,218.37203 L455.7678,218.281583 C455.87846,218.070541 455.98912,217.849449 456.109839,217.628358 L462.960692,200.996239 C474.610159,172.395025 477.819296,153.602239 472.527741,144.919369" id="Fill-3" fill="#FFF200" mask="url(#mask-2)"></path>
        </g>
        <polyline id="Fill-5" fill="#FFF200" points="563.803085 414.852781 563.50363 422.288041 578.49637 421.323467 577.667877 445.568443 562.625227 444.664154 562.315789 452.63194 579.724138 454.440516 578.815789 481.358167 549 474.143955 549 394.024005 582 384.358167 581.121597 410.301196 563.803085 414.852781"></polyline>
        <path d="M606.225,444.562537 L615.775,445 L611.715,411 L606.225,444.562537 Z M649,498 L621.735659,491.422609 L619.292726,471.185259 L602.353046,468.497723 L599.518037,486.05764 L581,481.591884 L600.46304,382.072215 L626.360142,376 L649,498 L649,498 Z" id="Fill-6" fill="#FFF200"></path>
        <path d="M741.986306,461.860685 C742.638453,505.094736 719.923658,518.951804 689.824548,511.403481 C672.246668,506.999453 661.220361,499.92479 652,491.812107 L657.307476,456.559726 C665.243608,463.483221 673.560996,469.34854 687.28619,471.00131 C693.857829,471.797462 695.894535,469.560175 695.884502,466.405803 C695.874469,455.199214 652.381255,460.217992 653.193931,411.481425 C653.645418,383.354097 667.681636,364.931755 691.249239,359.197448 C706.017869,355.599649 721.227953,355.781051 735.254138,357.746235 L727.950087,402.29041 C719.813295,398.400353 706.519521,395.346759 693.958159,396.858439 C688.851344,397.463111 685.640772,398.904246 685.620706,403.076483 C685.610673,413.365986 741.063266,401.574881 741.986306,461.860685" id="Fill-7" fill="#FFF200"></path>
        <g id="Group-11" transform="translate(632.000000, 0.000000)">
            <mask id="mask-4" fill="white">
                <use xlink:href="#path-3"></use>
            </mask>
            <g id="Clip-9"></g>
            <path d="M300.795666,305.358167 L114,348.860059 L114.827557,396.569215 L160.393629,391.909017 L164.864453,533.9897 L254.089181,555.358167 L244.168594,383.343512 L292.126507,378.431684 C301.017694,348.950646 303.893958,324.522351 300.795666,305.358167" id="Fill-8" fill="#FFF200" mask="url(#mask-4)"></path>
            <path d="M383.689767,286 C387.637235,290.220685 391.090007,294.90474 393.947125,300.173042 L394.12885,300.475239 C402.589151,314.950477 406.728439,333.102446 406.425565,354.437558 C406.102498,376.910945 401.943018,403.997874 394.037988,434.973071 C387.859343,459.561838 383.800821,479.728454 381.983573,494.979332 C380.156229,511.076361 380.408624,523.355634 382.771047,532.612937 C385.73922,543.774082 391.271732,551.177909 399.237337,554.582663 C402.32666,555.922403 405.56742,556.90958 409,557.56434 L409,563.296011 C389.303046,569.541417 369.616188,571.435185 350.36345,568.926949 C329.767967,566.267615 315.320842,558.883934 306.204312,546.342757 L306.002396,546.080852 C296.047912,533.217331 291,514.884044 291,491.594725 C291,467.036178 298.046886,431.789929 311.958932,386.802862 C322.428303,352.735181 325.5782,323.89551 321.479295,300.535678 L383.689767,286 Z M487.487412,38.9386975 C472.044944,39.3814305 457.6588,43.8892574 444.359162,52.4521161 C436.663078,57.1813095 429.912657,63.2890125 424.097838,70.7953493 C418.343381,78.291624 413.162357,86.2205695 408.65537,94.5922481 C404.158442,102.943802 400.073985,111.426164 396.462358,120.009147 C392.800431,128.602192 389.289407,136.531138 385.838745,143.806046 C378.142661,160.116732 370.285613,173.831393 362.388324,184.980215 C354.430674,196.139099 345.738627,204.933386 336.312182,211.342953 C326.895797,217.782706 316.372785,222.179849 304.803509,224.534384 C293.244293,226.888918 279.944655,227.23103 264.924717,225.510409 L338.877543,68.551498 C338.626037,68.2999451 338.33429,68.0584544 338.062663,67.8169637 C336.875555,30.0136027 249.391706,37.7312439 249.391706,37.7312439 C222.742129,40.0354679 201.183034,44.6741023 183.778818,50.8623022 C179.060566,43.1245368 171.27394,32.0562118 167.07882,27.5483848 C159.443097,19.3779486 150.559905,12.8778231 140.660629,8.20900241 C130.771412,3.55024379 120.107558,0.84353522 108.930631,0.149249378 C97.6128604,-0.53497435 86.2548492,1.13533652 75.1885849,5.11993352 L56.9091283,11.6904937 C45.8529242,15.6650286 36.0240694,21.6016757 27.67407,29.3495032 C19.424673,37.0067717 12.8855168,45.9117423 8.20750505,55.8329863 C3.53955356,65.7341062 0.83334892,76.4200708 0.149252581,87.5688928 C-0.534843758,98.8887706 1.13515613,110.238835 5.10895104,121.317222 L54.7260561,259.379483 C58.7099113,270.45787 64.6555133,285.712035 72.3817778,294.003216 C79.9973797,302.173653 88.8906321,308.68384 98.7999688,313.352661 C106.81798,317.125954 115.339004,319.611296 124.222196,320.778501 C126.354967,321.050178 128.507858,321.25142 130.68087,321.382228 C134.02087,321.573408 137.36087,321.080364 140.70087,320.20496 L211.434419,172.29189 L163.849482,181.136488 L176.263819,215.679724 C177.471048,219.030408 177.964,222.220098 177.752735,225.409788 C177.531409,228.871155 176.746711,232.030658 175.338277,235.069417 C173.990205,238.007554 172.13912,240.553269 169.684422,242.867555 C167.350446,245.061096 164.58388,246.711282 161.23382,247.918736 L145.107255,253.714513 C141.757195,254.911905 138.568099,255.404948 135.368942,255.203706 C131.958521,254.98234 128.839846,254.177371 125.821774,252.758613 C122.803702,251.339855 120.20816,249.438115 117.864124,246.942711 C115.670992,244.608301 114.021112,241.851281 112.813884,238.500598 L63.1967784,100.438336 C61.9895496,97.0876523 61.5066581,93.9080244 61.7179231,90.6982101 C61.9291882,87.3475263 62.7138869,84.2886437 64.1122603,81.3806929 C65.5609349,78.3721209 67.5025613,75.7459092 70.0276816,73.3712504 C72.3616573,71.1777096 75.1282234,69.527523 78.4782834,68.3200694 L94.6149088,62.5242919 C97.9549086,61.3168383 101.144005,60.8338568 104.333101,61.0350991 C107.753583,61.2665277 110.832016,62.0413104 113.759546,63.4097579 C116.697136,64.7983296 119.262498,66.6799448 121.596473,69.175349 C123.799666,71.5097594 125.449545,74.2768406 126.656774,77.6275245 L129.966593,86.8444206 C102.854246,121.931011 116.606594,162.330397 116.606594,162.330397 C130.087316,141.381077 147.139423,125.332005 165.338398,113.046165 C165.770988,114.615854 166.25388,116.195606 166.827314,117.765296 C169.60394,125.251508 174.21153,131.791882 180.650084,137.366293 C190.96183,124.516974 200.800745,113.780699 210.21713,105.197716 C219.693876,96.6348572 229.120321,89.6718745 238.536706,84.3087679 C242.359598,82.1252893 246.273031,80.243674 250.246826,78.5331147 C291.322787,63.5405654 294.713088,72.8681447 296.705016,72.8480205 L283.556282,77.5570897 C276.695198,80.9882704 270.578572,86.0092652 265.236584,92.6603223 C259.894596,99.3013173 254.19044,108.860325 248.174417,121.297098 L148.910026,328.858378 L224.814539,311.138996 L256.061645,244.55799 C310.145497,259.329173 325.35658,305.433778 301.594292,382.912053 C287.359052,429.087092 280.236402,465.028962 280.236402,490.777911 C280.236402,516.57717 285.950619,536.952951 297.459534,551.865003 C308.304473,566.807242 325.447122,575.792709 348.877422,578.821405 C372.317782,581.880288 395.828563,578.982399 419.590851,570.157926 L419.590851,546.763511 C413.464164,546.763511 408.081936,545.777424 403.283201,543.704629 C398.564949,541.672082 395.164587,536.791957 393.102238,528.963632 C391.11031,521.175556 390.939286,509.996548 392.599226,495.376297 C394.339648,480.806356 398.232961,461.30598 404.359647,436.865106 C412.468201,404.978268 416.693502,377.317517 417.025489,353.923103 C417.357477,330.538751 412.800189,310.696263 403.283201,294.385577 C389.701877,269.290665 365.275613,254.378613 330.084893,249.619233 L326.523568,246.660972 L353.696277,246.107555 C372.961637,242.233642 390.23507,234.827926 405.466273,223.910533 C420.697477,212.962953 433.202356,195.71649 443.101632,172.10071 C450.375186,153.676979 457.548137,136.953747 464.610426,121.920949 C471.733076,106.918337 480.364762,93.6262852 490.676509,82.0548545 C497.115062,74.74976 503.141146,69.7287653 508.684339,66.9214356 C514.237591,64.1543543 520.676145,62.3230496 528,61.4577078 L528,45.3885124 C516.430724,40.669381 502.929881,38.5261508 487.487412,38.9386975 L487.487412,38.9386975 Z" id="Fill-10" fill="#FFF200" mask="url(#mask-4)"></path>
        </g>
        <path d="M504,263 L542.104271,172 L604.779608,175.006939 L639,262.919815 L504,263 Z M505.926839,363.025712 C508.179649,362.77317 510,364.409642 510,366.672418 C510,368.935194 508.179649,370.975733 505.926839,371.218173 L463.073161,375.976064 C460.820351,376.218504 459,374.592134 459,372.329358 C459,370.066582 460.820351,368.026043 463.073161,367.773501 L505.926839,363.025712 Z M505.926839,389.226497 L463.073161,393.974285 C460.820351,394.226827 459,392.590355 459,390.337681 C459,388.064804 460.820351,386.034368 463.073161,385.781826 L505.926839,381.023936 C508.179649,380.781496 510,382.407866 510,384.670641 C510,386.933417 508.179649,388.973955 505.926839,389.226497 Z M505.926839,407.217051 L463.073161,411.974291 C460.820351,412.226799 459,410.590551 459,408.328084 C459,406.065617 460.820351,404.025356 463.073161,403.772849 L505.926839,399.025709 C508.179649,398.773201 510,400.409449 510,402.671916 C510,404.934383 508.179649,406.974644 505.926839,407.217051 Z M505.926839,425.223406 L463.073161,429.974139 C460.820351,430.226838 459,428.599459 459,426.325172 C459,424.060992 460.820351,422.029296 463.073161,421.776597 L505.926839,417.025864 C508.179649,416.773166 510,418.400544 510,420.664724 C510,422.939011 508.179649,424.970707 505.926839,425.223406 Z M505.926839,443.227151 L463.073161,447.974291 C460.820351,448.226799 459,446.590551 459,444.328084 C459,442.065617 460.820351,440.025356 463.073161,439.772849 L505.926839,435.025709 C508.179649,434.773201 510,436.409449 510,438.671916 C510,440.934383 508.179649,442.974644 505.926839,443.227151 Z M505.926839,460.223406 L463.073161,464.974139 C460.820351,465.226838 459,463.599459 459,461.325172 C459,459.060992 460.820351,457.029296 463.073161,456.776597 L505.926839,452.025864 C508.179649,451.773166 510,453.400544 510,455.664724 C510,457.928903 508.179649,459.970707 505.926839,460.223406 Z M438.917587,379.218174 L396.082413,383.976064 C393.830047,384.218504 392,382.592134 392,380.329359 C392,378.066583 393.830047,376.026045 396.082413,375.773503 L438.917587,371.025715 C441.169953,370.773173 443,372.409645 443,374.662319 C443,376.935196 441.169953,378.965632 438.917587,379.218174 Z M438.917587,397.226499 L396.082413,401.974288 C393.830047,402.22683 392,400.590358 392,398.327582 C392,396.064806 393.830047,394.034369 396.082413,393.781827 L438.917587,389.023936 C441.169953,388.781496 443,390.407866 443,392.670642 C443,394.933418 441.169953,396.973957 438.917587,397.226499 Z M438.917587,414.217051 L396.082413,418.974291 C393.830047,419.226799 392,417.590551 392,415.328084 C392,413.065617 393.830047,411.025356 396.082413,410.772849 L438.917587,406.025709 C441.169953,405.773201 443,407.409449 443,409.671916 C443,411.934383 441.169953,413.974644 438.917587,414.217051 Z M438.917587,432.226415 L396.082413,436.974155 C393.830047,437.226695 392,435.600341 392,433.327487 C392,431.064734 393.830047,429.034317 396.082413,428.781778 L438.917587,424.023936 C441.169953,423.781498 443,425.407852 443,427.670605 C443,429.933358 441.169953,431.973876 438.917587,432.226415 Z M438.917587,450.217051 L396.082413,454.974291 C393.830047,455.226799 392,453.590551 392,451.328084 C392,449.065617 393.830047,447.025356 396.082413,446.772849 L438.917587,442.025709 C441.169953,441.773201 443,443.409449 443,445.671916 C443,447.934383 441.169953,449.974644 438.917587,450.217051 Z M438.917587,468.226499 L396.082413,472.974288 C393.830047,473.22683 392,471.590358 392,469.327582 C392,467.064806 393.830047,465.034369 396.082413,464.781827 L438.917587,460.023936 C441.169953,459.781496 443,461.407866 443,463.670642 C443,465.933418 441.169953,467.973957 438.917587,468.226499 Z M732.959855,343.342624 C703.212204,341.865795 687.645873,320.195595 675.672544,292.497522 L586.570102,55.9437221 L445.258726,40 L445.258726,165.892112 C503.569741,168.735258 493.272478,213.271188 476.792841,254.140161 L469.566692,271.872152 C469.004658,272.464893 469.004658,273.650375 468.442624,274.243115 L463.956389,284.962681 C448.109041,322.265164 425.597577,358.683559 371,361.345869 L371,492 L532.755358,473.745594 L532.755358,353.449357 C503.569741,354.875953 492.730517,337.85726 492.730517,313.876375 C492.730517,306.853904 493.824475,299.228646 495.460395,291.010647 L645.724168,288.720055 C647.10918,296.234803 648.032521,303.207041 648.032521,309.656865 C648.032521,331.698784 638.768998,348.285479 612.815077,349.551332 L612.815077,367.886111 L636.88217,362.260096 L642.301783,391.324487 C648.112812,368.971128 663.799579,353.479496 687.254457,347.783157 C696.146636,345.633216 705.711248,344.538152 715.677313,344.538152 C721.277579,344.538152 727.088608,344.899824 733,345.59303 L732.959855,343.342624 L732.959855,343.342624 Z" id="Fill-12" fill="#FFF200"></path>
    </g>
</svg>